<?xml version="1.0" encoding="UTF-8"?>
<svg id="Layer_1" data-name="Layer 1" xmlns="http://www.w3.org/2000/svg" viewBox="0 0 24 24">
  <defs>
    <style>
      .cls-1 {
        fill: none;
        stroke: #333;
        stroke-miterlimit: 10;
        stroke-width: 1.2px;
      }
    </style>
  </defs>
  <g>
    <circle class="cls-1" cx="12" cy="8.95" r="1.55"/>
    <ellipse class="cls-1" cx="12" cy="11.04" rx="1.58" ry=".53"/>
    <path class="cls-1" d="M12.93,11.47c0,1.53,.65,3.3,.65,3.3,0,0-.59,.32-1.58,.32s-1.58-.32-1.58-.32c0,0,.65-1.77,.65-3.3"/>
    <g>
      <path class="cls-1" d="M13.56,14.72c.55,.14,.89,.35,.89,.58,0,.29-.55,.54-1.35,.66-.33,.06-.71,.09-1.11,.09s-.78-.03-1.11-.09c-.8-.12-1.35-.37-1.35-.66,0-.23,.35-.44,.89-.57"/>
      <path class="cls-1" d="M14.46,15.3v1.33c0,.41-1.1,.74-2.46,.74s-2.46-.33-2.46-.74v-1.33"/>
    </g>
  </g>
  <circle class="cls-1" cx="16.14" cy="7.61" r="1.55"/>
  <ellipse class="cls-1" cx="16.14" cy="9.7" rx="1.58" ry=".53"/>
  <path class="cls-1" d="M17.07,10.12c0,1.53,.65,3.3,.65,3.3,0,0-.59,.32-1.58,.32s-1.58-.32-1.58-.32c0,0,.65-1.77,.65-3.3"/>
  <path class="cls-1" d="M17.7,13.38c.55,.14,.89,.35,.89,.58,0,.29-.55,.54-1.35,.66-.33,.06-.71,.09-1.11,.09s-.78-.03-1.11-.09c-.8-.12-1.35-.37-1.35-.66,0-.23,.35-.44,.89-.57"/>
  <line class="cls-1" x1="13.68" y1="14.75" x2="13.68" y2="13.95"/>
  <path class="cls-1" d="M18.6,13.95v1.33c0,.41-1.1,.74-2.46,.74-.65,0-1.24-.08-1.68-.2"/>
  <circle class="cls-1" cx="7.86" cy="7.61" r="1.55"/>
  <ellipse class="cls-1" cx="7.86" cy="9.7" rx="1.58" ry=".53"/>
  <path class="cls-1" d="M8.79,10.12c0,1.53,.65,3.3,.65,3.3,0,0-.59,.32-1.58,.32s-1.58-.32-1.58-.32c0,0,.65-1.77,.65-3.3"/>
  <path class="cls-1" d="M9.42,13.38c.55,.14,.89,.35,.89,.58,0,.29-.55,.54-1.35,.66-.33,.06-.71,.09-1.11,.09s-.78-.03-1.11-.09c-.8-.12-1.35-.37-1.35-.66,0-.23,.35-.44,.89-.57"/>
  <path class="cls-1" d="M9.54,15.82c-.44,.12-1.03,.2-1.68,.2-1.36,0-2.46-.33-2.46-.74v-1.33"/>
  <line class="cls-1" x1="10.32" y1="13.95" x2="10.32" y2="14.75"/>
</svg>