<?xml version="1.0" encoding="UTF-8"?>
<svg id="Layer_1" data-name="Layer 1" xmlns="http://www.w3.org/2000/svg" viewBox="0 0 24 24">
  <defs>
    <style>
      .cls-1 {
        fill: none;
        stroke: #333;
        stroke-miterlimit: 10;
        stroke-width: 1.2px;
      }
    </style>
  </defs>
  <path class="cls-1" d="M13.15,6.76v-.95c0-.2-.05-.39-.15-.58-.32-.55-1.02-.74-1.57-.42-.37,.21-.57,.6-.57,1v.95"/>
  <path class="cls-1" d="M11.15,17.09c-.14,.27-.14,.61,.03,.89,.26,.45,.84,.61,1.29,.35s.6-.8,.37-1.24"/>
  <path class="cls-1" d="M12.01,17.1c2.45,0,4.59-.33,5.67-.81,0,0-.42-1.72-1.1-5.11-.5-2.47-1.81-4.57-4.57-4.57-2.76,0-4.07,2.1-4.57,4.57-.68,3.39-1.1,5.11-1.1,5.11,1.08,.48,3.21,.81,5.67,.81"/>
</svg>