<?xml version="1.0" encoding="UTF-8"?>
<svg id="Layer_1" data-name="Layer 1" xmlns="http://www.w3.org/2000/svg" viewBox="0 0 24 24">
  <defs>
    <style>
      .cls-1 {
        fill: none;
        stroke: #333;
        stroke-miterlimit: 10;
        stroke-width: 1.2px;
      }
    </style>
  </defs>
  <path class="cls-1" d="M18.01,16.61l.91-1.58c.25-.44,.1-1-.33-1.25l-.55-.32c.1-.44,.16-.9,.16-1.37s-.06-.94-.16-1.39l.54-.31c.44-.25,.59-.81,.33-1.25l-.91-1.58c-.25-.44-.81-.59-1.25-.33l-.55,.32c-.68-.63-1.49-1.11-2.39-1.38v-.62c0-.5-.41-.91-.91-.91h-1.82c-.5,0-.91,.41-.91,.91v.63c-.9,.28-1.71,.76-2.39,1.39l-.55-.31c-.44-.25-1-.1-1.25,.33l-.91,1.58c-.25,.44-.1,1,.33,1.25l.55,.32c-.1,.44-.16,.9-.16,1.37s.06,.94,.16,1.39l-.54,.31c-.44,.25-.59,.81-.33,1.25l.91,1.58c.25,.44,.81,.59,1.25,.33l.55-.32c.68,.63,1.49,1.11,2.39,1.38v.62c0,.5,.41,.91,.91,.91h1.82c.5,0,.91-.41,.91-.91v-.63c.9-.28,1.71-.76,2.39-1.39l.55,.31c.44,.25,1,.1,1.25-.33Z"/>
  <circle class="cls-1" cx="12" cy="12.11" r="3.01"/>
</svg>