<svg width="200" height="43" viewBox="0 0 200 43" fill="none" xmlns="http://www.w3.org/2000/svg">
<path d="M73.6855 10.5764C72.0713 9.58863 70.1199 9.09474 67.8552 9.09474C65.5906 9.09474 63.4946 9.62477 61.6877 10.6969C59.8807 11.769 58.4593 13.2506 57.4234 15.1539C56.3874 17.0572 55.8694 19.2736 55.8694 21.8153C55.8694 24.357 56.3994 26.6699 57.4475 28.5491C58.4955 30.4403 59.9892 31.8858 61.9045 32.9097C63.8198 33.9336 66.1206 34.4396 68.7948 34.4396C70.5656 34.4396 72.3122 34.1505 74.0589 33.5843C75.7935 33.0181 77.215 32.2351 78.3232 31.2353L76.8174 27.7299C75.6128 28.6936 74.336 29.4043 72.9868 29.8621C71.6377 30.3078 70.2524 30.5367 68.855 30.5367C67.0843 30.5367 65.6026 30.1994 64.398 29.5368C63.1934 28.8743 62.2899 27.8745 61.6636 26.5615C61.1817 25.5376 60.8926 24.3209 60.7842 22.9236H78.7207V21.2251C78.7207 18.7195 78.2871 16.5633 77.4197 14.7684C76.5524 12.9615 75.3117 11.5762 73.6855 10.5884V10.5764ZM64.0728 13.7566C65.1569 13.0217 66.482 12.6483 68.06 12.6483C70.1319 12.6483 71.722 13.3349 72.8182 14.7082C73.8059 15.9369 74.336 17.6595 74.4323 19.8157H60.8444C60.9649 18.7075 61.2179 17.7076 61.6033 16.8042C62.1695 15.5032 63.0007 14.4793 64.0848 13.7445L64.0728 13.7566Z" fill="#211E1F"/>
<path d="M98.0425 18.5629H83.6114V22.6706H98.0425V18.5629Z" fill="#211E1F"/>
<path d="M123.809 10.3716C122.424 9.51635 120.773 9.09474 118.87 9.09474C117.533 9.09474 116.292 9.31157 115.136 9.74523C113.979 10.1789 112.968 10.7932 112.076 11.6003C111.45 12.1665 110.92 12.8531 110.438 13.5759L111.052 9.54044H106.089L100.825 43.0043H105.884L108.017 29.5127C108.619 31.0426 109.534 32.2231 110.811 33.0302C112.293 33.9698 114.004 34.4275 115.943 34.4275C118.509 34.4275 120.713 33.765 122.532 32.4279C124.351 31.0908 125.748 29.2959 126.712 27.0433C127.676 24.7907 128.17 22.3092 128.17 19.5989C128.17 17.4306 127.784 15.5635 127.013 13.9854C126.242 12.4194 125.17 11.2028 123.785 10.3475L123.809 10.3716ZM122.159 25.2003C121.544 26.8144 120.653 28.1154 119.472 29.0791C118.304 30.0428 116.87 30.5366 115.16 30.5366C113.257 30.5366 111.775 29.9584 110.703 28.7779C109.631 27.6095 109.101 25.9351 109.101 23.7668C109.101 21.7672 109.414 19.9482 110.052 18.334C110.691 16.7199 111.594 15.4309 112.787 14.4793C113.979 13.5277 115.401 13.0458 117.075 13.0458C118.942 13.0458 120.412 13.624 121.484 14.7684C122.556 15.9248 123.086 17.5992 123.086 19.8037C123.086 21.7792 122.773 23.5741 122.159 25.1882V25.2003Z" fill="#211E1F"/>
<path d="M150.021 10.4439C148.6 9.54045 146.672 9.09474 144.239 9.09474C142.974 9.09474 141.709 9.2152 140.457 9.44408C139.204 9.67295 138.023 10.0102 136.903 10.4439C135.783 10.8776 134.819 11.3835 134.024 11.9496L135.277 15.5514C136.614 14.648 137.963 13.9975 139.336 13.6C140.71 13.2024 142.143 12.9977 143.649 12.9977C145.648 12.9977 147.046 13.4674 147.829 14.395C148.612 15.3346 148.853 16.6837 148.551 18.4545L148.359 19.6591H144.889C141.685 19.6591 139.059 19.9241 137.023 20.43C134.988 20.948 133.494 21.7431 132.542 22.8152C131.591 23.8873 131.121 25.2846 131.121 27.0192C131.121 28.4166 131.482 29.6814 132.229 30.8017C132.964 31.9219 133.952 32.8013 135.18 33.4518C136.421 34.1023 137.746 34.4275 139.192 34.4275C140.36 34.4275 141.493 34.2227 142.577 33.8252C143.661 33.4277 144.649 32.7772 145.528 31.8979C146.01 31.416 146.407 30.8739 146.757 30.2837L146.203 33.9818H150.961L153.213 19.7555C153.551 17.6474 153.454 15.7923 152.936 14.1902C152.418 12.5881 151.455 11.3353 150.033 10.4318L150.021 10.4439ZM146.263 27.8986C145.576 28.8502 144.757 29.573 143.781 30.0789C142.818 30.5848 141.758 30.8258 140.625 30.8258C139.384 30.8258 138.324 30.4764 137.445 29.7778C136.554 29.0791 136.12 28.0552 136.12 26.7181C136.12 25.7182 136.409 24.9232 136.975 24.333C137.541 23.7547 138.505 23.3452 139.854 23.1043C141.203 22.8754 143.034 22.7549 145.335 22.7549H147.853L147.588 24.4534C147.383 25.7905 146.949 26.9349 146.263 27.8865V27.8986Z" fill="#211E1F"/>
<path d="M164.019 13.8529C165.006 13.1542 166.368 12.8049 168.102 12.8049C169.5 12.8049 170.825 13.0097 172.065 13.4313C173.306 13.8529 174.426 14.5034 175.426 15.4069L177.028 12.0942C176.366 11.4317 175.559 10.8776 174.619 10.4439C173.679 10.0102 172.668 9.67295 171.583 9.44408C170.499 9.2152 169.415 9.09474 168.355 9.09474C166.187 9.09474 164.308 9.44408 162.718 10.1427C161.128 10.8414 159.923 11.781 159.116 12.9495C158.297 14.1179 157.887 15.443 157.887 16.9126C157.887 18.5147 158.393 19.8518 159.393 20.9239C160.393 21.996 161.766 22.7067 163.501 23.0802L168.162 24.1282C169.126 24.357 169.873 24.7184 170.391 25.2003C170.909 25.6821 171.174 26.3085 171.174 27.0794C171.174 28.2118 170.704 29.1152 169.764 29.7898C168.825 30.4523 167.512 30.7896 165.801 30.7896C164.838 30.7896 163.85 30.6932 162.874 30.4885C161.886 30.2837 160.947 29.9946 160.043 29.6091C159.14 29.2236 158.285 28.7297 157.49 28.1274L155.731 31.4883C156.899 32.4279 158.357 33.1506 160.116 33.6686C161.874 34.1866 163.742 34.4516 165.753 34.4516C167.765 34.4516 169.524 34.1505 171.041 33.5482C172.559 32.9459 173.74 32.0665 174.571 30.898C175.402 29.7296 175.824 28.3443 175.824 26.7422C175.824 25.14 175.318 23.827 174.294 22.8152C173.27 21.7912 171.836 21.0685 169.957 20.6348L165.295 19.5868C164.332 19.382 163.621 19.0327 163.187 18.5147C162.754 17.9967 162.537 17.3824 162.537 16.6837C162.537 15.5153 163.031 14.5757 164.019 13.877V13.8529Z" fill="#211E1F"/>
<path d="M192.929 20.6228L188.267 19.5748C187.303 19.37 186.593 19.0207 186.159 18.5027C185.725 17.9847 185.509 17.3704 185.509 16.6717C185.509 15.5032 186.003 14.5636 186.99 13.865C187.978 13.1663 189.339 12.817 191.074 12.817C192.483 12.817 193.796 13.0217 195.037 13.4434C196.278 13.865 197.386 14.5154 198.398 15.4189L200 12.1062C199.325 11.4437 198.53 10.8896 197.591 10.4559C196.651 10.0223 195.639 9.685 194.555 9.45612C193.471 9.22725 192.399 9.10679 191.327 9.10679C189.159 9.10679 187.279 9.45612 185.689 10.1548C184.099 10.8535 182.907 11.793 182.088 12.9615C181.268 14.13 180.859 15.455 180.859 16.9247C180.859 18.5268 181.365 19.8639 182.365 20.936C183.364 22.0081 184.738 22.7188 186.472 23.0922L191.134 24.1402C192.098 24.3691 192.845 24.7305 193.363 25.2123C193.881 25.6942 194.134 26.3205 194.134 27.0915C194.134 28.2238 193.664 29.1273 192.736 29.8018C191.797 30.4644 190.484 30.8017 188.773 30.8017C187.809 30.8017 186.822 30.7053 185.846 30.5005C184.858 30.2957 183.919 30.0066 183.015 29.6212C182.112 29.2357 181.256 28.7418 180.461 28.1395L178.703 31.5003C179.871 32.4399 181.329 33.1627 183.087 33.6807C184.846 34.1986 186.713 34.4637 188.725 34.4637C190.737 34.4637 192.483 34.1625 194.013 33.5602C195.531 32.9579 196.711 32.0785 197.543 30.9101C198.374 29.7416 198.795 28.3563 198.795 26.7542C198.795 25.1521 198.289 23.8391 197.266 22.8272C196.242 21.8033 194.808 21.0805 192.929 20.6469V20.6228Z" fill="#211E1F"/>
<path d="M27.9709 14.5877H14.5877V27.9708H27.9709V14.5877Z" fill="#211E1F"/>
<path d="M21.2853 40.8842C10.468 40.8842 1.6744 32.0906 1.6744 21.2853C1.6744 10.48 10.468 1.6744 21.2853 1.6744C32.1026 1.6744 40.8962 10.468 40.8962 21.2853C40.8962 32.1026 32.1026 40.8962 21.2853 40.8962V40.8842ZM21.2853 4.0836C11.8051 4.0836 4.0836 11.7931 4.0836 21.2853C4.0836 30.7776 11.7931 38.487 21.2853 38.487C30.7655 38.487 38.487 30.7776 38.487 21.2853C38.487 11.7931 30.7655 4.0836 21.2853 4.0836Z" fill="#211E1F"/>
<path d="M2.4092 10.5764H0V3.61381C0 1.62621 1.62621 0 3.61381 0H10.5764V2.4092H3.61381C2.95127 2.4092 2.4092 2.95127 2.4092 3.61381V10.5764Z" fill="#211E1F"/>
<path d="M42.5586 10.5764H40.1494V3.61381C40.1494 2.95127 39.6073 2.4092 38.9448 2.4092H31.9822V0H38.9448C40.9324 0 42.5586 1.62621 42.5586 3.61381V10.5764Z" fill="#211E1F"/>
<path d="M38.9448 42.5827H31.9822V40.1735H38.9448C39.6073 40.1735 40.1494 39.6314 40.1494 38.9689V32.0063H42.5586V38.9689C42.5586 40.9565 40.9324 42.5827 38.9448 42.5827Z" fill="#211E1F"/>
<path d="M10.5764 42.5827H3.61381C1.62621 42.5827 0 40.9565 0 38.9689V32.0063H2.4092V38.9689C2.4092 39.6314 2.95127 40.1735 3.61381 40.1735H10.5764V42.5827Z" fill="#211E1F"/>
</svg>
