<?xml version="1.0" encoding="UTF-8"?>
<svg id="Layer_1" data-name="Layer 1" xmlns="http://www.w3.org/2000/svg" viewBox="0 0 24 24">
  <defs>
    <style>
      .cls-1 {
        fill: none;
        stroke: #333;
        stroke-miterlimit: 10;
        stroke-width: 1.2px;
      }
    </style>
  </defs>
  <g>
    <path class="cls-1" d="M7.98,19.87h-2.75c-.55,0-1-.45-1-1v-2.75"/>
    <path class="cls-1" d="M19.77,16.12v2.75c0,.55-.45,1-1,1h-2.75"/>
    <path class="cls-1" d="M16.02,4.32h2.75c.55,0,1,.45,1,1v2.75"/>
    <path class="cls-1" d="M4.23,8.08v-2.75c0-.55,.45-1,1-1h2.75"/>
  </g>
  <g>
    <rect class="cls-1" x="7.28" y="7.38" width="3.37" height="3.37"/>
    <rect class="cls-1" x="7.28" y="13.45" width="3.37" height="3.37"/>
    <rect class="cls-1" x="13.35" y="7.38" width="3.37" height="3.37"/>
    <rect class="cls-1" x="14.74" y="14.83" width=".6" height=".6" transform="translate(30.17 .09) rotate(90)"/>
    <rect class="cls-1" x="8.67" y="14.83" width=".6" height=".6" transform="translate(24.09 6.17) rotate(90)"/>
    <rect class="cls-1" x="8.67" y="8.76" width=".6" height=".6" transform="translate(18.02 .09) rotate(90)"/>
    <rect class="cls-1" x="14.74" y="8.76" width=".6" height=".6" transform="translate(24.09 -5.98) rotate(90)"/>
  </g>
</svg>