<?xml version="1.0" encoding="UTF-8"?>
<svg id="Layer_1" data-name="Layer 1" xmlns="http://www.w3.org/2000/svg" viewBox="0 0 24 24">
  <defs>
    <style>
      .cls-1 {
        fill: none;
        stroke: #333;
        stroke-miterlimit: 10;
        stroke-width: 1.2px;
      }
    </style>
  </defs>
  <circle class="cls-1" cx="12" cy="6.85" r="2.32"/>
  <ellipse class="cls-1" cx="12" cy="9.97" rx="2.37" ry=".8"/>
  <path class="cls-1" d="M13.39,10.6c0,2.29,.97,4.93,.97,4.93,0,0-.88,.48-2.37,.48-1.48,0-2.37-.48-2.37-.48,0,0,.97-2.64,.97-4.93"/>
  <g>
    <path class="cls-1" d="M14.33,15.47c.82,.21,1.34,.52,1.34,.86,0,.44-.82,.81-2.01,.99-.49,.09-1.06,.13-1.66,.13s-1.17-.04-1.66-.13c-1.2-.17-2.01-.55-2.01-.99,0-.34,.52-.65,1.33-.86"/>
    <path class="cls-1" d="M15.67,16.33v1.99c0,.61-1.64,1.1-3.67,1.1s-3.67-.49-3.67-1.1v-1.99"/>
  </g>
</svg>