<?xml version="1.0" encoding="UTF-8"?>
<svg id="Layer_1" data-name="Layer 1" xmlns="http://www.w3.org/2000/svg" viewBox="0 0 24 24">
  <defs>
    <style>
      .cls-1 {
        fill: none;
        stroke: #333;
        stroke-miterlimit: 10;
        stroke-width: 1.2px;
      }
    </style>
  </defs>
  <g>
    <ellipse class="cls-1" cx="12" cy="9.49" rx="2.37" ry=".8"/>
    <path class="cls-1" d="M13.39,10.13c0,2.29,.97,4.93,.97,4.93,0,0-.88,.48-2.37,.48-1.48,0-2.37-.48-2.37-.48,0,0,.97-2.64,.97-4.93"/>
    <g>
      <path class="cls-1" d="M14.33,14.99c.82,.21,1.34,.52,1.34,.86,0,.44-.82,.81-2.01,.99-.49,.09-1.06,.13-1.66,.13s-1.17-.04-1.66-.13c-1.2-.17-2.01-.55-2.01-.99,0-.34,.52-.65,1.33-.86"/>
      <path class="cls-1" d="M15.67,15.85v1.99c0,.61-1.64,1.1-3.67,1.1s-3.67-.49-3.67-1.1v-1.99"/>
    </g>
  </g>
  <path class="cls-1" d="M9.42,6.33v-1.27h1.07v1.27h.92v-1.27h1.17v1.27h.93v-1.27h1.07v2.59c0,.58-.47,1.04-1.04,1.04h-3.07c-.58,0-1.04-.47-1.04-1.04v-1.33Z"/>
</svg>